<?xml version="1.0" encoding="UTF-8"?>
<svg version="1.1" xmlns="http://www.w3.org/2000/svg" width="299" height="169">
<path d="M0 0 C98.67 0 197.34 0 299 0 C299 55.77 299 111.54 299 169 C200.33 169 101.66 169 0 169 C0 113.23 0 57.46 0 0 Z " fill="#FEFEFE" transform="translate(0,0)"/>
<path d="M0 0 C0.99 0 1.98 0 3 0 C3.33 3.3 3.66 6.6 4 10 C4.33 9.67 4.66 9.34 5 9 C12.22962963 8.40740741 12.22962963 8.40740741 15.4375 10.875 C18.55571722 15.11577542 18.60298626 18.85688187 18 24 C16.5625 27.0625 16.5625 27.0625 14 29 C9.28212458 29.80050594 6.01608493 29.67738996 2 27 C2 27.66 2 28.32 2 29 C1.34 29 0.68 29 0 29 C0 19.43 0 9.86 0 0 Z " fill="#056DD1" transform="translate(246,70)"/>
<path d="M0 0 C1.60332791 -0.08121924 3.20784026 -0.13929134 4.8125 -0.1875 C6.15248047 -0.23970703 6.15248047 -0.23970703 7.51953125 -0.29296875 C10 0 10 0 11.63671875 1.26757812 C13.29572518 3.37579976 13.35275965 4.36098902 13.29296875 7.01171875 C13.28330078 7.76904297 13.27363281 8.52636719 13.26367188 9.30664062 C13.23853516 10.09232422 13.21339844 10.87800781 13.1875 11.6875 C13.16719727 12.88342773 13.16719727 12.88342773 13.14648438 14.10351562 C13.11117089 16.06929967 13.05736447 18.03473582 13 20 C12.38125 19.814375 11.7625 19.62875 11.125 19.4375 C8.95839822 18.76313824 8.95839822 18.76313824 7 20 C5.125 20.16796875 5.125 20.16796875 3 20.1875 C1.948125 20.20876953 1.948125 20.20876953 0.875 20.23046875 C-1 20 -1 20 -3 18 C-3.4375 14.5625 -3.4375 14.5625 -3 11 C-0.09033541 8.18126243 2.41255374 7.84020832 6.3125 7.8125 C7.529375 7.874375 8.74625 7.93625 10 8 C9.34 6.35 8.68 4.7 8 3 C5.03 3 2.06 3 -1 3 C-0.67 2.01 -0.34 1.02 0 0 Z " fill="#0E6FD1" transform="translate(92,79)"/>
<path d="M0 0 C0.99 0 1.98 0 3 0 C3 0.66 3 1.32 3 2 C3.99 1.34 4.98 0.68 6 0 C7.9375 -0.23046875 7.9375 -0.23046875 10 -0.1875 C10.680625 -0.18105469 11.36125 -0.17460938 12.0625 -0.16796875 C14 0 14 0 17 1 C17.66 0.67 18.32 0.34 19 0 C20.875 -0.16796875 20.875 -0.16796875 23 -0.1875 C24.051875 -0.20876953 24.051875 -0.20876953 25.125 -0.23046875 C27 0 27 0 29 2 C29.22705078 3.87939453 29.22705078 3.87939453 29.1953125 6.1328125 C29.18886719 6.93847656 29.18242188 7.74414062 29.17578125 8.57421875 C29.15902344 9.41597656 29.14226562 10.25773437 29.125 11.125 C29.11597656 11.97449219 29.10695313 12.82398437 29.09765625 13.69921875 C29.07405647 15.79959884 29.03818483 17.89983444 29 20 C28.34 20 27.68 20 27 20 C26.93941406 18.94039062 26.87882812 17.88078125 26.81640625 16.7890625 C26.73199873 15.40102779 26.64735083 14.01300768 26.5625 12.625 C26.52318359 11.92632812 26.48386719 11.22765625 26.44335938 10.5078125 C26.25719866 6.62639508 26.25719866 6.62639508 25 3 C22.08365871 2.7497843 22.08365871 2.7497843 19 3 C16.57520264 6.63719605 16.61337423 8.85703482 16.375 13.1875 C16.30023438 14.45980469 16.22546875 15.73210937 16.1484375 17.04296875 C16.09945312 18.01878906 16.05046875 18.99460937 16 20 C15.01 20 14.02 20 13 20 C12.93941406 18.85660156 12.87882812 17.71320313 12.81640625 16.53515625 C12.73201572 15.04425695 12.64736698 13.55337225 12.5625 12.0625 C12.52318359 11.30775391 12.48386719 10.55300781 12.44335938 9.77539062 C12.55961976 6.08055813 12.55961976 6.08055813 11 3 C8.54207971 2.66656449 8.54207971 2.66656449 6 3 C3.57520264 6.63719605 3.61337423 8.85703482 3.375 13.1875 C3.30023438 14.45980469 3.22546875 15.73210937 3.1484375 17.04296875 C3.09945312 18.01878906 3.05046875 18.99460937 3 20 C2.01 20 1.02 20 0 20 C0 13.4 0 6.8 0 0 Z " fill="#247AD4" transform="translate(54,79)"/>
<path d="M0 0 C0.99 0 1.98 0 3 0 C3.33 3.3 3.66 6.6 4 10 C4.66 9.67 5.32 9.34 6 9 C13.40567128 8.52979865 13.40567128 8.52979865 15.60498047 10.26977539 C17.30379866 12.37679753 17.35323565 13.33988599 17.29296875 16.01171875 C17.28330078 16.76904297 17.27363281 17.52636719 17.26367188 18.30664062 C17.23853516 19.09232422 17.21339844 19.87800781 17.1875 20.6875 C17.16719727 21.88342773 17.16719727 21.88342773 17.14648438 23.10351562 C17.11117089 25.06929967 17.05736447 27.03473582 17 29 C16.01 29 15.02 29 14 29 C13.93941406 27.85660156 13.87882813 26.71320313 13.81640625 25.53515625 C13.73201572 24.04425695 13.64736698 22.55337225 13.5625 21.0625 C13.52318359 20.30775391 13.48386719 19.55300781 13.44335938 18.77539062 C13.55961976 15.08055813 13.55961976 15.08055813 12 12 C9.04182893 11.74994614 9.04182893 11.74994614 6 12 C3.15385976 14.84614024 3.54420924 17.80369142 3.375 21.625 C3.33632812 22.33140625 3.29765625 23.0378125 3.2578125 23.765625 C3.16352276 25.50998524 3.08067109 27.25495691 3 29 C2.01 29 1.02 29 0 29 C0 19.43 0 9.86 0 0 Z " fill="#0B6DD1" transform="translate(199,70)"/>
<path d="M0 0 C2.21442221 1.77153777 2.86894101 3.11171131 3.28125 5.90625 C3.42794999 9.18254968 3.23033977 11.48813383 1.875 14.5 C0 16 0 16 -3 16.4375 C-6.3378228 15.95073417 -7.03168547 15.63017468 -9 13 C-9.3984375 10.625 -9.3984375 10.625 -9.375 8 C-9.38273438 7.13375 -9.39046875 6.2675 -9.3984375 5.375 C-8.49056993 -0.03660278 -4.99401073 -0.72829323 0 0 Z " fill="#F6F9FC" transform="translate(258,81)"/>
<path d="M0 0 C0.99 0 1.98 0 3 0 C3.06058594 1.14339844 3.12117187 2.28679687 3.18359375 3.46484375 C3.26798428 4.95574305 3.35263302 6.44662775 3.4375 7.9375 C3.47681641 8.69224609 3.51613281 9.44699219 3.55664062 10.22460938 C3.44038024 13.91944187 3.44038024 13.91944187 5 17 C7.64 17 10.28 17 13 17 C13.33 11.39 13.66 5.78 14 0 C14.99 0 15.98 0 17 0 C17 6.6 17 13.2 17 20 C16.34 20 15.68 20 15 20 C15 19.34 15 18.68 15 18 C14.319375 18.515625 13.63875 19.03125 12.9375 19.5625 C9.12680162 21.42730984 7.0587462 21.05226753 3 20 C0.99425998 18.45483089 0.1103721 17.61610579 -0.34057617 15.09887695 C-0.32486572 14.40238037 -0.30915527 13.70588379 -0.29296875 12.98828125 C-0.28330078 12.23095703 -0.27363281 11.47363281 -0.26367188 10.69335938 C-0.23853516 9.90767578 -0.21339844 9.12199219 -0.1875 8.3125 C-0.17396484 7.51521484 -0.16042969 6.71792969 -0.14648438 5.89648438 C-0.11117089 3.93070033 -0.05736447 1.96526418 0 0 Z " fill="#1873D3" transform="translate(222,79)"/>
<path d="M0 0 C4.63063436 1.35060169 7.72047571 4.41545409 11 7.875 C12.50889469 10.89278937 12.50026276 12.49822637 12 15.875 C9.04638758 20.24050407 5.882564 23.75778198 1 25.875 C1 22.875 1 22.875 2.53125 21.26171875 C3.1809375 20.70097656 3.830625 20.14023438 4.5 19.5625 C7.02898052 17.12090296 7.91033396 16.24860849 8.75 12.75 C7.72669341 8.82732474 6.24432811 7.27298165 3 4.875 C0.13360046 3.78982477 0.13360046 3.78982477 -3 4.875 C-5.92921393 7.31689443 -8.48400397 10.01417203 -11 12.875 C-11.66 12.545 -12.32 12.215 -13 11.875 C-10.56216943 6.25306419 -5.91446001 1.72505084 0 0 Z " fill="#1974D3" transform="translate(173,74.125)"/>
<path d="M0 0 C0.66 0.33 1.32 0.66 2 1 C0.81914033 4.07023515 -0.78856342 5.78346645 -3.1875 7.9375 C-5.61958218 10.24945297 -5.61958218 10.24945297 -6.25 13.5 C-4.4666501 17.06669981 -2.28098544 19.70889824 1 22 C3.54891042 22.56023462 3.54891042 22.56023462 6 21 C7.91719536 19.24118165 9.70080001 17.42284344 11.44921875 15.49609375 C13 14 13 14 15 14 C12.91388284 18.59963393 10.03060719 21.96066003 6 25 C2.5625 25.9375 2.5625 25.9375 -1 25 C-5.14874415 21.96451457 -8.21285294 18.6427417 -10.4375 14 C-9.72748748 9.1313427 -6.41004164 6.35989397 -3 3 C-2.42765625 2.42636719 -1.8553125 1.85273437 -1.265625 1.26171875 C-0.63914063 0.63716797 -0.63914063 0.63716797 0 0 Z " fill="#1974D3" transform="translate(159,72)"/>
<path d="M0 0 C0.90105469 0.01804687 1.80210938 0.03609375 2.73046875 0.0546875 C3.41753906 0.07789062 4.10460938 0.10109375 4.8125 0.125 C4.8125 1.115 4.8125 2.105 4.8125 3.125 C1.8425 3.125 -1.1275 3.125 -4.1875 3.125 C-4.5175 4.445 -4.8475 5.765 -5.1875 7.125 C-4.24777344 7.41503906 -4.24777344 7.41503906 -3.2890625 7.7109375 C-2.06316406 8.10152344 -2.06316406 8.10152344 -0.8125 8.5 C-0.00039063 8.75523438 0.81171875 9.01046875 1.6484375 9.2734375 C3.8125 10.125 3.8125 10.125 5.8125 12.125 C5.5625 15.6875 5.5625 15.6875 4.8125 19.125 C2.16791621 20.44729189 0.13488699 20.22177194 -2.8125 20.1875 C-3.81539062 20.17847656 -4.81828125 20.16945313 -5.8515625 20.16015625 C-6.62242188 20.14855469 -7.39328125 20.13695313 -8.1875 20.125 C-8.1875 19.135 -8.1875 18.145 -8.1875 17.125 C-4.8875 17.125 -1.5875 17.125 1.8125 17.125 C1.8125 15.805 1.8125 14.485 1.8125 13.125 C1.25820313 12.85945313 0.70390625 12.59390625 0.1328125 12.3203125 C-0.59164062 11.96710938 -1.31609375 11.61390625 -2.0625 11.25 C-2.78179687 10.90195313 -3.50109375 10.55390625 -4.2421875 10.1953125 C-6.1875 9.125 -6.1875 9.125 -8.1875 7.125 C-8.5 4.625 -8.5 4.625 -8.1875 2.125 C-4.87379 -0.08414 -3.8428979 -0.09981553 0 0 Z " fill="#1270D2" transform="translate(43.1875,78.875)"/>
<path d="M0 0 C0.66 0 1.32 0 2 0 C2 1.65 2 3.3 2 5 C3.98 5 5.96 5 8 5 C8 5.66 8 6.32 8 7 C6.02 7 4.04 7 2 7 C2.33 11.95 2.66 16.9 3 22 C4.65 22.33 6.3 22.66 8 23 C8 23.66 8 24.32 8 25 C4.625 25.1875 4.625 25.1875 1 25 C-1.45391569 21.31912647 -1.22802759 18.55644412 -1.125 14.3125 C-1.11597656 13.61060547 -1.10695313 12.90871094 -1.09765625 12.18554688 C-1.07413704 10.45688475 -1.03826713 8.72839855 -1 7 C-1.99 6.67 -2.98 6.34 -4 6 C-3.01 5.67 -2.02 5.34 -1 5 C-0.67 3.35 -0.34 1.7 0 0 Z " fill="#096CD1" transform="translate(128,74)"/>
<path d="M0 0 C0.99 0 1.98 0 3 0 C3.33 0.66 3.66 1.32 4 2 C4.66 1.34 5.32 0.68 6 0 C9.125 -0.125 9.125 -0.125 12 0 C12 0.66 12 1.32 12 2 C11.05125 2.268125 10.1025 2.53625 9.125 2.8125 C5.74732727 3.74986588 5.74732727 3.74986588 4 7 C3.5396236 10.19806665 3.5396236 10.19806665 3.375 13.6875 C3.30023438 14.86699219 3.22546875 16.04648438 3.1484375 17.26171875 C3.09945312 18.16535156 3.05046875 19.06898437 3 20 C2.01 20 1.02 20 0 20 C0 13.4 0 6.8 0 0 Z " fill="#1C75D3" transform="translate(111,79)"/>
<path d="M0 0 C0.66 0 1.32 0 2 0 C2 3.63 2 7.26 2 11 C2.66 11 3.32 11 4 11 C3.67 16.61 3.34 22.22 3 28 C2.01 28 1.02 28 0 28 C0 18.76 0 9.52 0 0 Z " fill="#066CD0" transform="translate(199,71)"/>
<path d="M0 0 C0.22223194 2.74086056 0.34781139 4.43963721 -1.125 6.8125 C-3.80231137 8.50813053 -5.90089373 8.2694875 -9 8 C-10 7 -10 7 -10.25 4.5625 C-10.1675 3.716875 -10.085 2.87125 -10 2 C-6.3558226 -0.4294516 -4.28758728 -0.16179575 0 0 Z " fill="#F1F5FB" transform="translate(102,89)"/>
<path d="M0 0 C0.99 0 1.98 0 3 0 C3.33 3.3 3.66 6.6 4 10 C4.33 9.67 4.66 9.34 5 9 C12.22962963 8.40740741 12.22962963 8.40740741 15.4375 10.875 C17.76796158 14.04442774 18.11797687 15.741619 18.0625 19.625 C18.05347656 20.44226563 18.04445313 21.25953125 18.03515625 22.1015625 C18.02355469 22.72804688 18.01195312 23.35453125 18 24 C17.67 24 17.34 24 17 24 C16.731875 22.948125 16.46375 21.89625 16.1875 20.8125 C14.72808922 16.05306418 14.72808922 16.05306418 12 12 C8.84010585 11.61307419 6.86120256 11.56939872 4 13 C3.34 12.67 2.68 12.34 2 12 C1.62109375 10.0390625 1.62109375 10.0390625 1.4375 7.625 C1.21246912 4.80522535 0.90445432 2.71336297 0 0 Z " fill="#1974D3" transform="translate(246,70)"/>
<path d="M0 0 C6.0546875 -0.1953125 6.0546875 -0.1953125 8 0 C10 2 10 2 10.22705078 3.87939453 C10.21134033 4.99483643 10.21134033 4.99483643 10.1953125 6.1328125 C10.18564453 7.34130859 10.18564453 7.34130859 10.17578125 8.57421875 C10.15902344 9.41597656 10.14226562 10.25773437 10.125 11.125 C10.11597656 11.97449219 10.10695313 12.82398437 10.09765625 13.69921875 C10.07405647 15.79959884 10.03818483 17.89983444 10 20 C9.34 20 8.68 20 8 20 C7.93941406 18.94039062 7.87882812 17.88078125 7.81640625 16.7890625 C7.73199873 15.40102779 7.64735083 14.01300768 7.5625 12.625 C7.52318359 11.92632812 7.48386719 11.22765625 7.44335938 10.5078125 C7.25719866 6.62639508 7.25719866 6.62639508 6 3 C2.97065509 2.34227572 2.97065509 2.34227572 0 2 C0 1.34 0 0.68 0 0 Z " fill="#056BD1" transform="translate(73,79)"/>
<path d="M0 0 C0.66 0 1.32 0 2 0 C-0.05858105 4.56116978 -2.9999088 7.99372028 -7 11 C-10.4375 11.4375 -10.4375 11.4375 -13 11 C-12 9 -12 9 -9.3125 7.75 C-6.41503922 6.21926601 -4.94778263 5.10748186 -2.75 2.8125 C-1.38875 1.4203125 -1.38875 1.4203125 0 0 Z " fill="#0268D0" transform="translate(172,86)"/>
<path d="M0 0 C1.62463842 -0.05395478 3.24978541 -0.09277195 4.875 -0.125 C5.77992187 -0.14820312 6.68484375 -0.17140625 7.6171875 -0.1953125 C10 0 10 0 12 2 C11.625 5.125 11.625 5.125 11 8 C10.690625 7.360625 10.38125 6.72125 10.0625 6.0625 C9.1654837 4.06389179 9.1654837 4.06389179 8 3 C6.48071962 2.92820036 4.95832518 2.91607993 3.4375 2.9375 C2.19806641 2.95103516 2.19806641 2.95103516 0.93359375 2.96484375 C-0.02353516 2.98224609 -0.02353516 2.98224609 -1 3 C-0.67 2.01 -0.34 1.02 0 0 Z " fill="#0C6DD1" transform="translate(92,79)"/>
<path d="M0 0 C0.33 0 0.66 0 1 0 C1 5.61 1 11.22 1 17 C0.67 17 0.34 17 0 17 C-0.66 13.37 -1.32 9.74 -2 6 C-4.64 6 -7.28 6 -10 6 C-10 5.67 -10 5.34 -10 5 C-7.03 5 -4.06 5 -1 5 C-0.67 3.35 -0.34 1.7 0 0 Z " fill="#3C84D7" transform="translate(104,82)"/>
<path d="M0 0 C0.99 0 1.98 0 3 0 C3.33 3.3 3.66 6.6 4 10 C4.99 10 5.98 10 7 10 C6.01 10.99 5.02 11.98 4 13 C3.34 12.67 2.68 12.34 2 12 C1.62109375 10.0390625 1.62109375 10.0390625 1.4375 7.625 C1.21246912 4.80522535 0.90445432 2.71336297 0 0 Z " fill="#287AD4" transform="translate(246,70)"/>
<path d="M0 0 C2 2 2 2 2.125 5.625 C2.08375 6.73875 2.0425 7.8525 2 9 C-0.475 8.01 -0.475 8.01 -3 7 C-2.01 4.69 -1.02 2.38 0 0 Z " fill="#1874D3" transform="translate(102,90)"/>
<path d="M0 0 C0.99 0 1.98 0 3 0 C3.33 3.3 3.66 6.6 4 10 C4.66 10 5.32 10 6 10 C5.67 10.99 5.34 11.98 5 13 C4.01 12.67 3.02 12.34 2 12 C2 8.37 2 4.74 2 1 C1.34 0.67 0.68 0.34 0 0 Z " fill="#307CD4" transform="translate(199,70)"/>
<path d="M0 0 C2.64 0.33 5.28 0.66 8 1 C7.67 1.66 7.34 2.32 7 3 C4.69 3 2.38 3 0 3 C0 2.01 0 1.02 0 0 Z " fill="#1570D2" transform="translate(35,96)"/>
</svg>
