 <svg version="1.0" xmlns="http://www.w3.org/2000/svg"  width="300.000000pt" height="84.000000pt" viewBox="0 0 300.000000 84.000000"  preserveAspectRatio="xMidYMid meet">  <g transform="translate(0.000000,84.000000) scale(0.100000,-0.100000)" fill="#1c71d8" stroke="none"> <path d="M1016 467 c-2 -6 -14 -40 -26 -75 -12 -35 -19 -66 -17 -69 9 -8 27 7 27 21 0 17 39 105 40 90 0 -6 -7 -28 -15 -47 -27 -64 -10 -62 24 3 25 48 26 60 5 60 -8 0 -13 4 -10 9 3 5 -1 12 -9 15 -9 3 -17 0 -19 -7z"/> <path d="M1185 450 c-6 -25 -9 -29 -21 -19 -17 14 -14 19 -42 -61 -35 -98 -35 -100 -24 -100 6 0 23 32 38 70 15 39 29 68 31 66 2 -2 -23 -75 -57 -163 -33 -88 -60 -163 -60 -167 0 -3 6 -6 13 -6 12 0 147 345 150 384 3 32 -21 29 -28 -4z"/> <path d="M912 282 c-45 -120 -49 -138 -36 -149 12 -9 13 -16 5 -32 -8 -14 -8 -22 0 -26 15 -10 18 -5 49 82 15 43 31 86 35 96 5 12 3 17 -9 17 -9 0 -16 -4 -16 -10 0 -16 -42 -122 -46 -117 -4 4 80 239 92 258 2 4 -2 9 -9 12 -10 4 -29 -35 -65 -131z"/> <path d="M1091 380 c-17 -57 -2 -73 19 -19 9 24 15 47 13 52 -9 16 -21 5 -32 -33z"/> <path d="M1044 343 c-4 -12 -12 -19 -19 -17 -7 3 -16 1 -19 -4 -9 -15 42 -11 55 5 9 11 9 17 0 26 -9 9 -13 7 -17 -10z"/> <path d="M1246 334 c-9 -8 -16 -19 -16 -24 0 -14 30 -40 46 -40 8 0 14 -7 14 -15 0 -8 -7 -15 -15 -15 -8 0 -15 5 -15 10 0 6 -7 10 -15 10 -18 0 -19 -12 -3 -28 28 -28 88 -2 74 33 -3 8 -17 20 -31 27 -32 15 -33 32 0 24 28 -7 37 17 9 28 -24 9 -31 8 -48 -10z"/> <path d="M1770 280 c0 -47 3 -60 15 -60 9 0 15 9 15 25 0 20 5 25 25 25 22 0 25 -3 19 -25 -5 -19 -2 -25 10 -25 13 0 16 12 16 60 0 48 -3 60 -16 60 -10 0 -14 -7 -12 -22 2 -17 -3 -24 -19 -26 -19 -3 -23 1 -23 22 0 16 -6 26 -15 26 -12 0 -15 -13 -15 -60z"/> <path d="M1990 279 l0 -60 43 3 c38 3 42 6 45 31 4 34 -15 60 -40 54 -13 -4 -18 0 -18 14 0 10 -7 19 -15 19 -12 0 -15 -13 -15 -61z m65 -19 c0 -8 -8 -16 -17 -18 -13 -2 -18 3 -18 18 0 15 5 20 18 18 9 -2 17 -10 17 -18z"/> <path d="M1656 308 c-3 -13 -1 -24 4 -26 6 -2 10 -17 10 -33 0 -25 4 -29 28 -29 24 1 25 2 10 14 -19 14 -24 46 -8 46 6 0 10 7 10 16 0 8 -4 12 -10 9 -5 -3 -10 1 -10 9 0 24 -27 19 -34 -6z"/> <path d="M1336 300 c-2 -3 -4 -22 -4 -42 -1 -27 3 -38 13 -38 10 0 15 10 15 30 0 20 5 30 15 30 10 0 15 -10 15 -30 0 -20 5 -30 15 -30 11 0 15 8 13 28 -2 19 2 27 12 27 10 0 14 -9 13 -27 -1 -19 3 -28 13 -28 18 0 19 65 2 77 -15 9 -118 12 -122 3z"/> <path d="M1497 303 c-14 -13 -6 -24 12 -18 11 3 22 1 26 -5 4 -6 -4 -10 -19 -10 -13 0 -26 -6 -29 -12 -8 -26 6 -38 43 -38 l39 0 -6 38 c-3 20 -11 40 -17 44 -14 10 -41 10 -49 1z m43 -53 c0 -5 -7 -10 -15 -10 -8 0 -15 5 -15 10 0 6 7 10 15 10 8 0 15 -4 15 -10z"/> <path d="M1603 303 c-19 -4 -23 -11 -23 -44 0 -28 4 -39 15 -39 10 0 15 10 15 30 0 20 5 30 15 30 8 0 15 7 15 15 0 8 -3 14 -7 14 -5 -1 -18 -4 -30 -6z"/> <path d="M1892 269 c3 -43 4 -44 41 -46 l37 -1 0 45 c0 30 -4 43 -12 41 -7 -3 -12 -18 -13 -34 0 -19 -5 -29 -15 -29 -10 0 -15 10 -15 29 0 16 -6 31 -13 34 -10 3 -12 -7 -10 -39z"/> <path d="M992 280 c-15 -24 -16 -54 -2 -45 7 4 9 -2 4 -19 -4 -17 -2 -26 5 -26 21 0 24 30 5 51 -15 16 -16 22 -5 28 7 5 12 14 10 20 -2 6 -10 2 -17 -9z"/> <path d="M1017 278 c-6 -23 8 -48 27 -48 14 0 37 50 29 63 -3 5 -12 -1 -20 -14 -13 -23 -14 -23 -8 -1 5 15 2 22 -8 22 -8 0 -17 -10 -20 -22z"/> <path d="M946 178 c-9 -29 -20 -59 -23 -65 -2 -7 2 -13 10 -13 8 0 17 10 20 21 4 16 11 20 24 15 16 -5 15 -4 -2 9 -17 13 -18 18 -7 36 8 12 9 26 4 35 -6 11 -13 0 -26 -38z"/> <path d="M1067 223 c-2 -4 -10 -25 -17 -46 -6 -21 -14 -36 -16 -34 -3 2 0 16 5 31 6 14 7 26 2 26 -12 0 -27 -21 -35 -46 -6 -21 -3 -23 41 -34 11 -2 43 94 34 103 -5 5 -11 5 -14 0z"/> <path d="M1237 193 c-13 -13 -7 -32 13 -38 11 -3 20 -11 20 -16 0 -6 -9 -7 -20 -4 -20 7 -28 -9 -10 -20 16 -10 50 5 50 21 0 7 -9 19 -20 26 -26 17 -26 28 2 20 14 -3 19 -2 14 6 -8 13 -39 16 -49 5z"/> <path d="M1742 158 c3 -39 6 -43 31 -46 15 -2 27 1 27 7 0 6 -9 11 -20 11 -16 0 -20 7 -20 35 0 19 -5 35 -11 35 -6 0 -9 -17 -7 -42z"/> <path d="M1890 183 c0 -9 -3 -13 -7 -10 -10 11 -33 -13 -33 -34 0 -11 3 -20 8 -20 50 -9 52 -8 52 37 0 24 -4 44 -10 44 -5 0 -10 -7 -10 -17z m2 -38 c0 -5 -5 -11 -11 -13 -6 -2 -11 4 -11 13 0 9 5 15 11 13 6 -2 11 -8 11 -13z"/> <path d="M1806 182 c-7 -12 8 -65 20 -69 6 -2 10 12 10 33 -2 36 -18 55 -30 36z"/> <path d="M1313 173 c-18 -7 -16 -50 3 -57 22 -8 22 -8 34 15 9 15 8 24 -1 35 -12 15 -16 16 -36 7z"/> <path d="M1370 143 c0 -18 5 -33 10 -33 6 0 10 11 10 25 0 14 5 25 10 25 6 0 10 4 10 8 0 4 -9 8 -20 8 -16 0 -20 -7 -20 -33z"/> <path d="M1420 173 c0 -17 22 -63 30 -63 8 0 30 46 30 63 0 7 -7 3 -15 -7 -15 -20 -15 -20 -30 0 -8 10 -15 14 -15 7z"/> <path d="M1532 168 c-27 -27 5 -73 38 -53 15 9 2 25 -15 18 -10 -3 -15 1 -15 12 0 11 5 15 15 12 8 -4 17 -2 20 2 3 5 -2 12 -11 15 -20 8 -18 8 -32 -6z"/> <path d="M1591 162 c-7 -14 -7 -24 3 -37 19 -27 48 -12 44 22 -4 33 -32 42 -47 15z"/> <path d="M1660 165 c-10 -12 -8 -16 11 -24 l24 -10 -23 0 c-27 -1 -20 -21 8 -21 28 0 36 21 15 37 -11 7 -13 13 -6 13 7 0 9 5 6 10 -9 14 -21 12 -35 -5z"/> <path d="M1490 140 c0 -16 5 -30 10 -30 6 0 10 14 10 30 0 17 -4 30 -10 30 -5 0 -10 -13 -10 -30z"/> </g> </svg> 